<?xml version="1.0" standalone="no"?>
<!DOCTYPE svg PUBLIC "-//W3C//DTD SVG 20010904//EN"
 "http://www.w3.org/TR/2001/REC-SVG-20010904/DTD/svg10.dtd">
<svg version="1.0" xmlns="http://www.w3.org/2000/svg"
 width="32.000000pt" height="32.000000pt" viewBox="0 0 32.000000 32.000000"
 preserveAspectRatio="xMidYMid meet">

<g transform="translate(0.000000,32.000000) scale(0.100000,-0.100000)"
fill="#000000" stroke="none">
<path d="M27 243 c-3 -5 -8 -35 -12 -68 -3 -33 -9 -72 -11 -88 -7 -36 14 -36
22 1 12 55 12 55 63 18 27 -20 54 -36 60 -36 22 0 11 16 -24 34 -61 33 -63 42
-20 86 21 22 35 43 32 47 -4 4 -21 -10 -38 -30 -17 -20 -38 -41 -48 -47 -16
-8 -17 -5 -11 36 6 40 -1 66 -13 47z"/>
<path d="M200 239 c-24 -9 -25 -14 -27 -89 -1 -44 2 -80 7 -80 4 0 13 34 19
75 11 66 15 76 37 81 30 8 57 -2 52 -19 -3 -6 -19 -21 -36 -32 -40 -26 -40
-36 1 -33 26 3 32 -1 32 -17 0 -18 -21 -33 -70 -51 -19 -7 -19 -8 3 -11 35 -7
86 28 90 60 2 18 -2 29 -13 33 -15 6 -15 8 0 24 9 10 15 29 13 42 -2 19 -9 23
-43 25 -22 1 -51 -2 -65 -8z"/>
</g>
</svg>
